ply
format ascii 1.0
comment VCGLIB generated
element vertex 431
property float x
property float y
property float z
property float nx
property float ny
property float nz
property uchar red
property uchar green
property uchar blue
property uchar alpha
element face 799
property list uchar int vertex_indices
end_header
10.40545 -0.4042492 -8.322644 0.3224317 0.9444209 -0.06408549 124 228 13 255 
-6.846429 -0.7041051 -10.22761 -0.135928 0.8492872 -0.5101322 124 248 2 255 
-6.396348 -0.8617164 -10.76284 -0.12371 0.9158194 -0.382061 124 252 0 255 
-3.5051 -0.5898546 -10.47808 -0.02584005 0.9336534 -0.3572445 101 228 6 255 
-1.600794 -0.5242751 -11.11583 -0.1388642 0.9816823 -0.1304477 116 243 2 255 
0.3498588 0.3849786 -9.705371 -0.2408554 0.8715986 -0.4269713 119 247 1 255 
0.8340681 0.5103121 -9.657091 -0.04001886 0.9215377 -0.3862211 119 247 0 255 
0.7092865 0.05480231 -10.41418 -0.1420459 0.8548402 -0.4990703 124 252 0 255 
3.073228 0.5279256 -9.946564 -0.1421664 0.7934756 -0.5917645 124 252 0 255 
3.650561 0.1541432 -10.48923 0.0889919 0.8029906 -0.5893104 124 252 0 255 
3.683758 -0.2344599 -11.03033 0.07000159 0.8190702 -0.5694066 124 252 0 255 
7.437101 -0.355401 -9.30887 0.2101776 0.8967111 -0.3895313 124 250 0 255 
8.222332 -0.2912487 -8.961054 0.1013457 0.906472 -0.409924 124 222 16 255 
-7.943184 -0.2153196 6.3424 -0.004308899 0.9900893 -0.1403735 106 209 18 255 
-7.987971 -0.362188 3.47283 -0.00446754 0.9995457 -0.02980796 90 216 8 255 
-7.50604 0.3735144 -3.926332 -0.007684209 0.9919894 0.1260872 124 252 0 255 
-7.659505 0.04813571 -7.285996 -0.0811022 0.9807989 -0.1773583 104 216 13 255 
-7.101053 0.1690129 -7.310339 -0.0339423 0.9880333 -0.1504598 102 224 8 255 
-6.861403 0.05935292 -8.167061 -0.03636748 0.9929773 -0.1125768 108 199 24 255 
-4.628088 0.53576 6.710454 -0.0268976 0.9990771 0.03348848 107 203 21 255 
-4.124973 0.340643 2.973375 -0.08190877 0.9916608 -0.09949807 107 234 4 255 
-3.975019 0.09701412 -3.724643 0.09743817 0.9944804 0.03891908 101 228 6 255 
-4.007282 0.2480005 -4.616333 0.07819971 0.9957764 0.04810655 101 225 7 255 
-2.654694 -0.06511161 -7.502476 0.05975198 0.9942932 -0.08837917 106 224 8 255 
-1.410265 -0.2146692 -7.319856 -0.20941 0.9626287 -0.1717367 124 252 0 255 
-1.114765 -0.3095807 -8.081683 -0.3366904 0.9413311 -0.0231365 94 213 12 255 
-2.246109 -0.1722581 -8.115716 0.06554046 0.9978167 0.008148266 124 228 13 255 
-0.770269 -0.02525585 7.171351 0.08920337 0.995261 -0.03870909 83 209 11 255 
-0.586383 0.2384288 0.3648825 -0.1438481 0.9894187 0.01893093 101 228 6 255 
-0.229556 0.451289 -0.7578135 -0.1610317 0.984568 0.06851867 110 237 3 255 
-0.5230713 0.6828986 -2.818411 -0.1739661 0.9808906 0.08711699 101 228 6 255 
-0.2012377 0.8241147 -5.531274 -0.2336974 0.9721707 0.01642071 87 201 16 255 
-0.2059258 0.820261 -6.792232 -0.4260746 0.8966459 -0.1203601 91 194 22 255 
-0.2952414 0.5092587 -7.258413 -0.6194142 0.7663606 -0.1703457 91 194 21 255 
3.116384 -0.460328 7.636443 -0.0583785 0.9982911 -0.002592056 98 202 19 255 
1.635403 -0.2834153 7.096674 0.07627168 0.997086 0.001476026 117 244 1 255 
2.204298 -0.1995582 4.66613 0.004645624 0.994904 0.1007194 127 169 61 255 
3.215749 1.320922 0.5105829 0.01343394 0.9376316 0.3473708 112 240 3 255 
3.027421 0.8417861 -3.56474 0.08714969 0.9674084 -0.237752 101 227 6 255 
2.872051 0.6178215 -4.337927 0.05323258 0.9985777 0.003000214 122 227 13 255 
2.205925 0.5779544 -4.10555 0.0003115265 0.9999292 0.01189998 113 216 15 255 
3.051452 1.31237 -7.228662 0.09572582 0.962223 0.2548794 101 228 6 255 
3.255763 1.486168 -8.238751 0.01863357 0.9887398 -0.1484808 100 223 8 255 
2.618421 1.41613 -7.741266 -0.1887003 0.9800668 -0.06213987 103 212 25 255 
6.166147 0.002464998 -2.574678 0.3238724 0.9454025 0.03634209 124 223 18 255 
6.871198 -0.3083831 -2.257463 0.236453 0.9705384 0.04631722 132 195 60 255 
7.216115 -0.1896157 -3.745599 0.1861654 0.9755375 0.1169147 126 226 25 255 
6.20743 0.09988014 -3.347728 0.2267267 0.9730415 0.04225396 124 228 13 255 
7.001789 0.2918417 -6.993192 0.2614699 0.9649157 0.02390231 109 213 16 255 
9.116079 -0.4824428 8.754144 0.5017131 0.8223609 0.2683406 104 215 13 255 
9.702908 -0.7277619 8.714817 0.3556722 0.9098291 0.2137952 107 231 5 255 
10.50208 -0.392061 5.618233 0.4703654 0.8544523 0.2206075 120 234 8 255 
9.892741 -0.002507953 4.633757 0.4231344 0.9057264 0.02483751 106 209 18 255 
10.69788 -0.5110087 1.603355 0.3040421 0.9455108 -0.1164807 124 218 19 255 
10.70811 -0.3862552 0.6563651 0.1781089 0.9799352 -0.08946607 124 199 28 255 
8.928975 0.06439279 -5.876475 0.01959306 0.9903108 0.1374798 101 228 6 255 
8.036896 0.1326063 -6.549146 0.04111171 0.9912832 0.1251696 104 232 5 255 
9.019736 0.1784792 -6.519517 0.08073627 0.9950168 0.05850961 110 237 3 255 
9.724443 -0.01113697 -6.079834 0.2978818 0.9414296 0.1580403 116 243 2 255 
7.920918 -0.2682353 -3.653667 0.1274131 0.9757134 0.1781836 130 175 69 255 
7.74123 -0.06178007 -4.6378 0.07739298 0.9869999 0.1408599 124 252 0 255 
7.736196 -0.06242188 -5.441981 0.0781441 0.9929773 0.08882384 107 234 4 255 
8.758003 -0.131955 -4.481628 0.2420741 0.930697 0.2742322 134 133 105 255 
9.775856 -0.7414055 -4.318811 0.4227904 0.8716039 0.2481027 135 129 110 255 
10.15777 -0.6577004 -4.794103 0.3315991 0.8788779 0.3429514 139 190 90 255 
7.545019 -0.2610442 -2.960153 0.09575224 0.995159 0.02213913 135 129 110 255 
10.50059 -0.6533067 -0.4718989 0.2635958 0.9405332 -0.2142771 124 222 15 255 
9.809813 -0.4740199 -0.7897342 0.3438228 0.9208371 -0.1839699 128 193 49 255 
9.239653 -0.0800836 1.478083 0.06083064 0.9925025 -0.1060122 124 219 17 255 
7.928409 0.3105177 5.019228 -0.04417882 0.9964311 -0.07192609 124 215 20 255 
7.922793 0.1572439 3.630358 -0.10113 0.9817234 -0.1612205 129 186 53 255 
8.962616 0.3932765 4.708997 0.1701938 0.9847413 -0.03631369 106 206 19 255 
8.992517 0.2204549 3.465517 0.09310122 0.9916505 -0.08922738 119 198 27 255 
9.09973 0.1335265 2.353121 0.02611354 0.9799032 -0.1977568 113 179 37 255 
8.205813 -0.05676543 2.625385 -0.128644 0.9755022 -0.1784549 134 177 81 255 
10.0099 -0.0798778 3.521097 0.357992 0.9329453 -0.03814403 107 198 22 255 
9.944328 -0.0790612 2.379331 0.3140104 0.9441521 -0.09987111 111 184 32 255 
10.65223 -0.3566824 3.485756 0.4242256 0.9055546 0.001875966 118 222 14 255 
10.78372 -0.4370511 2.414774 0.3942719 0.9173015 -0.05574662 121 223 13 255 
6.856058 0.3578663 5.790971 -0.02173983 0.9996665 -0.01394425 129 228 34 255 
6.064577 0.5147766 8.347622 -0.06621515 0.9792585 0.1914898 95 199 20 255 
7.692913 0.3214953 6.673852 0.01243197 0.9998258 0.01392374 124 235 9 255 
6.249762 0.5298194 7.579112 -0.04851359 0.9981323 -0.03712516 107 234 4 255 
7.840326 0.2985845 5.839051 -0.02321309 0.9995198 -0.02052707 124 250 0 255 
7.51812 0.2865523 7.998715 0.05045447 0.9953887 0.08158184 113 200 25 255 
8.781825 0.4281634 5.900182 0.1095606 0.9935247 0.03008785 124 228 13 255 
8.426933 0.404947 7.268093 0.3465721 0.9307674 0.1164468 116 209 20 255 
8.628035 0.3794975 6.619985 0.2377702 0.9647808 0.1125318 105 210 17 255 
9.242581 -0.217574 7.366148 0.5518795 0.8184876 0.1597097 102 224 8 255 
9.354208 -0.2193697 6.660044 0.5396476 0.8073256 0.2387588 103 217 12 255 
9.525152 0.1006013 5.666546 0.459258 0.8724104 0.167279 103 219 11 255 
9.773679 -0.639737 7.670001 0.4932383 0.8546473 0.1621545 101 228 6 255 
10.06077 -0.5831274 6.508801 0.5068529 0.8333457 0.2205338 101 228 6 255 
6.772894 0.1728957 9.154601 0.1018168 0.948038 0.3014255 92 180 30 255 
8.274562 0.1554387 8.646057 0.3036675 0.9139471 0.2692337 94 199 19 255 
5.997397 -1.03394 10.94047 -0.003743689 0.8304852 0.5570282 124 252 0 255 
5.977274 -0.07332052 9.857408 -0.03279712 0.8592609 0.5104852 84 211 10 255 
7.233814 -1.065849 11.22193 -0.192601 0.8538224 0.4836242 124 252 0 255 
7.197408 -0.6038964 10.38876 -0.1134599 0.8038504 0.5839104 100 228 5 255 
7.290834 -0.1962385 9.888555 0.03092195 0.9075788 0.4187417 83 198 15 255 
8.007757 -0.7140386 10.99813 -0.07888521 0.9003662 0.4279227 117 244 1 255 
8.035513 -0.2069552 10.18463 0.1823831 0.9202549 0.3462186 108 236 3 255 
8.215593 -0.1559055 9.427441 0.3811358 0.8784408 0.2882314 94 216 9 255 
8.271032 -1.074336 11.75895 0.03448073 0.9294813 0.3672543 124 252 0 255 
8.571665 -0.6783327 11.00542 0.2562233 0.9169067 0.305993 117 244 1 255 
8.787255 -0.6192744 10.16579 0.3473148 0.922376 0.1691006 104 231 4 255 
8.823902 -0.5950786 9.372635 0.4536712 0.8669009 0.2065559 103 219 11 255 
9.275151 -1.111635 11.96015 0.05646087 0.9936253 -0.0975756 124 252 0 255 
9.301092 -1.187755 11.20002 0.3366632 0.9105476 0.2399189 124 252 0 255 
9.420933 -0.8564348 9.741724 0.4096042 0.8975342 0.1632692 101 228 6 255 
4.131269 1.108594 -7.272308 0.1499074 0.961537 0.2301617 113 241 2 255 
4.178248 1.319928 -7.900212 0.2258337 0.9703711 0.08590137 116 241 2 255 
5.894673 0.6985935 -6.539575 0.2505501 0.9514294 0.1789043 101 228 6 255 
5.897136 0.7632408 -7.113405 0.2883589 0.9516331 0.1060359 118 222 14 255 
4.109999 0.6540886 -5.338013 0.1340672 0.9639838 0.2296982 88 215 8 255 
3.040636 0.9978852 -5.754519 0.03244016 0.9790077 0.2012251 79 205 11 255 
3.959785 1.009813 -6.351902 0.1326959 0.9694758 0.2061759 101 228 6 255 
4.019094 0.3714474 -4.015599 0.168286 0.9844671 -0.05004206 101 228 6 255 
4.68736 0.5387231 -4.631942 0.07788178 0.9816398 0.17412 116 244 1 255 
4.7379 0.6157392 -5.696936 0.1359931 0.9715714 0.193791 101 228 6 255 
5.429437 0.220583 -3.44463 0.2189389 0.9757332 0.00322707 124 228 13 255 
5.520502 0.3014695 -4.114115 0.1877026 0.9601636 0.2070113 124 236 8 255 
5.700228 0.4741321 -5.214949 0.2114625 0.9653006 0.1532269 111 239 3 255 
6.391313 0.02803776 -4.101161 0.2207668 0.9665737 0.1303744 124 234 10 255 
6.598687 0.1351335 -4.719365 0.2318984 0.9631361 0.1363529 124 252 0 255 
6.788132 0.1681979 -5.794135 0.2593957 0.9550296 0.1436397 101 228 6 255 
3.820152 0.6586437 -3.403203 0.2641229 0.9546876 -0.1371523 97 203 18 255 
4.634875 0.5571554 -2.930562 0.2502381 0.9648806 -0.07991461 109 236 4 255 
5.350248 0.2155657 -2.71366 0.2972222 0.9548078 -0.001027149 124 228 13 255 
3.888573 1.24796 -0.04523861 0.4174569 0.90345 0.09750865 103 220 10 255 
4.535815 0.6552663 -1.350113 0.3612967 0.9225689 -0.1353937 93 196 21 255 
3.040717 1.578993 -0.3570966 0.131995 0.9883373 -0.07593842 99 196 23 255 
4.383451 0.6035801 -2.015837 0.2885805 0.9450382 -0.1537014 89 211 10 255 
3.859095 0.5991953 -2.495829 0.2401284 0.9672742 -0.08197025 104 207 18 255 
2.956931 0.9795625 -2.610473 0.1230035 0.9831154 -0.1354783 105 191 27 255 
4.616349 0.8224239 0.1532571 0.4239108 0.9016277 0.08583257 124 228 13 255 
5.232376 0.4641773 -0.1285449 0.5920209 0.805908 0.004878729 124 247 2 255 
5.208388 0.4557696 -0.7866837 0.5149812 0.8571545 -0.008971351 124 252 0 255 
5.908647 -0.2743755 0.1517598 0.5358019 0.8443095 0.007594907 124 232 10 255 
6.057759 -0.2289228 -1.008396 0.4922946 0.8519045 0.1786194 124 235 9 255 
6.110866 0.05092539 -1.810724 0.420725 0.9036045 0.0805566 120 207 22 255 
6.65616 -0.4975612 0.7023466 0.07567036 0.9922589 -0.0984699 135 137 108 255 
6.714399 -0.4852687 -0.7226253 0.0932063 0.9920102 0.08501954 129 186 56 255 
6.943042 -0.3295699 -1.531039 0.1363292 0.9813015 0.1358736 132 157 82 255 
4.654484 0.7698138 0.9303933 0.3175552 0.9416811 0.1113349 124 228 13 255 
5.271811 0.4866668 1.216407 0.5254487 0.8501716 0.03334652 124 226 15 255 
3.665324 0.07345416 3.594172 -0.0901051 0.9459366 0.3115849 131 154 80 255 
3.292006 0.4047635 3.03782 -0.006236042 0.9074882 0.4200315 124 229 12 255 
3.072037 0.8658268 2.069617 0.00924432 0.9520026 0.3059503 120 248 0 255 
3.6719 0.9446421 0.8625701 0.2709634 0.9273224 0.2581706 117 242 1 255 
3.018818 0.9904928 1.286499 -0.0541695 0.9676285 0.2464971 110 227 9 255 
4.623276 0.2511928 3.343476 0.03984028 0.970704 0.2369527 124 220 16 255 
4.60945 0.4939954 2.592669 0.1735125 0.9469621 0.2704743 124 210 23 255 
3.951435 0.6427142 2.076408 0.1722988 0.9630871 0.2068244 124 226 14 255 
5.271006 0.2287664 3.634219 0.03960535 0.99918 -0.008418654 135 129 110 255 
5.545735 0.1383692 2.59929 0.334569 0.9393858 0.07495285 127 184 53 255 
5.265438 0.4695842 2.072235 0.4263785 0.8962207 0.1224329 124 208 27 255 
5.945417 -0.1923696 1.381698 0.5122898 0.8555496 -0.07479393 130 207 52 255 
4.17918 -0.178898 7.304349 -0.2673011 0.9635361 0.01218306 118 234 7 255 
5.501772 0.3449091 7.303451 -0.277718 0.9600484 -0.03434837 110 237 3 255 
5.859036 0.3069245 6.603608 -0.07367034 0.9946709 -0.07212802 112 240 3 255 
4.310017 -0.1851867 8.313807 -0.2720461 0.9622834 0.001293088 89 192 22 255 
5.304687 0.2603342 8.163862 -0.3134668 0.9482403 0.05078236 90 193 21 255 
3.098739 -0.774244 10.91851 -0.007237385 0.9718193 0.2356162 124 252 0 255 
3.38695 -0.6379242 10.25705 -0.02488299 0.9312071 0.3636404 122 250 0 255 
3.308842 -0.3488676 9.698177 -0.04702263 0.9798083 0.1943312 101 228 6 255 
3.796969 -0.2253188 8.704459 -0.1778471 0.984049 -0.004244034 84 192 19 255 
4.453599 -0.8356804 10.86266 -0.01567606 0.8999693 0.4356714 113 241 2 255 
4.149346 -0.1911679 9.498008 -0.1559388 0.9612509 0.2273319 80 183 24 255 
5.277844 -0.4706394 10.217 -0.03146579 0.8091571 0.5867493 112 240 3 255 
5.051511 -0.06350934 9.473672 -0.159951 0.9160514 0.3677846 81 193 17 255 
1.069843 0.9752597 -7.053812 -0.2067349 0.9783223 0.01209175 90 195 21 255 
1.708124 1.235374 -7.499155 -0.2783593 0.952607 -0.1227038 106 209 18 255 
0.1456392 0.7243313 -3.590791 0.0154644 0.9998805 -0.0001192365 106 204 20 255 
-0.149082 0.7310946 -4.710384 -0.1342497 0.9906172 0.02558434 96 199 20 255 
1.070872 0.6259381 -4.206764 0.05466439 0.9880611 0.1440389 105 212 16 255 
0.7772187 0.8467048 -5.068363 -0.06464355 0.9952006 0.07346401 101 228 6 255 
0.9413993 0.8371881 -5.843247 -0.1132859 0.9926676 0.04215872 89 202 16 255 
1.373223 0.6439757 -3.754077 0.01878661 0.9975249 -0.06775958 106 209 18 255 
1.928235 0.985253 -5.55206 0.07144874 0.9675186 0.2424929 102 229 5 255 
1.606371 0.9974944 -6.039548 -0.165232 0.9808363 0.1032403 68 194 15 255 
2.138767 0.7731519 -5.018 0.02510162 0.9806252 0.1942789 124 252 0 255 
2.864777 1.030862 -6.420856 0.09744507 0.9714324 0.2163874 68 195 14 255 
0.7157995 0.7722238 -3.056914 -0.1042138 0.9945403 -0.005402205 101 228 6 255 
0.6399636 0.4753831 0.3671824 -0.2914936 0.953784 0.07299056 94 221 7 255 
0.5020529 0.5843829 -1.899536 -0.2916326 0.9541649 0.06722899 98 225 6 255 
-0.3385094 0.4538714 -1.655526 -0.2027341 0.9700906 0.1335034 101 228 6 255 
1.294999 0.936641 -0.9971347 -0.3307123 0.9434434 -0.02332352 83 209 11 255 
0.996705 0.8565846 -2.294235 -0.2524364 0.9671616 -0.02956894 101 228 6 255 
2.382633 1.089482 -1.840217 -0.08846607 0.9877023 -0.1289109 83 209 11 255 
1.655452 0.8690189 -2.722083 -0.034561 0.9824265 -0.1834221 101 228 6 255 
2.9705 1.138032 -1.67535 0.04125758 0.9771606 -0.2084588 106 200 24 255 
2.284925 0.8445876 -2.799512 -0.1032658 0.9722882 -0.2097425 95 211 13 255 
1.395912 1.020563 -0.3382941 -0.3969436 0.9114516 0.1081289 94 215 10 255 
2.25689 1.278297 -0.4100925 -0.2909263 0.9525784 0.08919841 90 192 22 255 
0.5473003 0.2616609 1.556207 -0.1917663 0.969423 0.1531168 124 228 13 255 
-0.105728 0.4255106 0.7646747 -0.1399615 0.9893211 0.04067577 104 232 5 255 
1.236334 0.4977058 1.748251 -0.1614286 0.9624346 0.2183128 118 221 15 255 
1.213472 0.6132069 0.861252 -0.2944386 0.9337869 0.2033419 83 209 11 255 
1.904411 0.2716731 2.645884 -0.1627072 0.9311669 0.326274 124 226 15 255 
1.909421 0.5051645 1.857854 -0.2409321 0.9355253 0.2583489 111 228 8 255 
2.559334 0.7639799 2.048639 -0.2964783 0.9140325 0.2768488 114 229 9 255 
1.975476 0.6971961 1.178115 -0.2496582 0.940014 0.2324748 106 209 18 255 
1.643075 -0.03667103 3.543325 0.006914508 0.9773571 0.2114835 135 138 104 255 
0.2135999 -0.2191621 6.658219 0.1062907 0.9943331 0.002006888 114 242 2 255 
-1.097229 -0.04303124 6.06891 0.1247826 0.9908601 0.05123986 124 252 0 255 
-0.5382882 0.03418309 4.840961 0.05473129 0.9970558 0.05370568 124 246 3 255 
1.387353 -0.1848291 6.023904 0.06988317 0.9951956 0.06857187 131 157 80 255 
-1.157808 -0.6041357 9.671772 -0.06446255 0.9590944 0.2756492 127 239 18 255 
0.002462107 -0.1859525 8.667336 0.009105851 0.9643254 0.2645629 105 233 4 255 
-0.1674546 -0.005830206 7.899472 0.1392073 0.989718 0.03285919 95 222 7 255 
-1.437358 -0.01454726 8.31095 0.03122299 0.9640157 0.2640054 93 211 12 255 
0.3098778 -0.6515831 10.08378 -0.04816784 0.9395456 0.3390193 124 252 0 255 
0.888972 -0.2076373 8.954349 -0.02278649 0.9816244 0.1894579 108 235 4 255 
0.5835353 -0.2121528 8.036569 0.09983863 0.9950032 -0.0009937992 91 208 19 255 
1.553944 -0.7540478 10.34868 -0.04930156 0.9259385 0.3744427 124 252 0 255 
2.026197 -0.2016526 8.440751 0.08174299 0.995972 -0.03684894 108 235 4 255 
2.498417 -0.58302 10.05614 -0.04085771 0.926771 0.3733981 124 252 0 255 
2.522699 -0.2487697 9.402602 -0.003360758 0.962064 0.2728035 124 252 0 255 
-1.082258 0.06103866 -7.195387 -0.4634514 0.8429734 -0.273146 111 239 3 255 
-0.8726586 -0.01667865 -7.782241 -0.6224667 0.7727287 -0.1241999 83 209 11 255 
-0.8849099 0.3858477 -5.63387 -0.443406 0.8772691 -0.1838207 99 220 9 255 
-2.959508 0.1516016 -4.730924 -0.06138009 0.9969262 -0.04868942 99 203 19 255 
-2.351519 -0.06721988 -5.801059 -0.1168082 0.9715387 -0.2060785 124 252 0 255 
-1.963913 -0.2180472 -6.687447 -0.07653701 0.9831035 -0.1662818 113 241 2 255 
-1.08182 0.5641947 -3.642148 -0.2115413 0.9772812 0.01311028 88 215 9 255 
-1.22226 0.469492 -4.698652 -0.2425081 0.9658552 -0.09117927 100 203 19 255 
-2.99828 0.05171887 -3.653322 -0.07620478 0.9970492 0.009266506 68 188 16 255 
-1.932196 0.443341 -3.936996 -0.2250698 0.973634 0.03715459 83 209 10 255 
-2.582796 -0.04793187 -1.23037 -0.1629238 0.9801776 0.1127282 101 228 6 255 
-3.351716 -0.06444354 -1.396067 -0.05053035 0.9936498 0.1005325 110 238 3 255 
-2.605229 0.1087793 -2.752209 -0.181408 0.9823403 0.04581226 83 209 11 255 
-3.191945 0.08848271 -3.046874 0.04519105 0.9970706 0.06170855 87 213 9 255 
-2.481722 0.1291876 -1.858992 -0.1979636 0.9740015 0.1101437 86 213 10 255 
-1.187338 0.4684663 -3.014359 -0.2308353 0.9661964 0.1148024 87 214 9 255 
-1.331481 0.255448 -0.6150407 -0.1221793 0.9908806 0.05681468 101 228 6 255 
-1.671676 0.3112373 -1.810334 -0.1786107 0.9790929 0.09734134 101 228 6 255 
-0.7638449 0.3024252 -1.383596 -0.1473014 0.9870573 0.06340624 101 228 6 255 
-1.396375 0.2022088 0.6576435 -0.07286758 0.9972231 0.01537937 135 129 110 255 
-4.352755 0.1212799 1.781592 -0.04937823 0.992701 -0.1100299 135 129 110 255 
-0.9158854 0.1776919 1.531806 -0.03147143 0.998162 0.05178942 135 129 110 255 
-3.784805 0.3834063 6.614397 0.0801328 0.996781 0.00255559 122 240 5 255 
-3.732857 0.2764069 5.80836 0.1829798 0.9817704 0.05143243 106 209 18 255 
-4.365335 0.5365691 5.85657 0.1054141 0.9943638 0.01133337 124 228 13 255 
-3.569833 0.3952456 4.921281 0.1215438 0.9923828 0.02008582 101 228 6 255 
-4.22689 0.4074186 4.531078 -0.04419485 0.995607 -0.08254357 86 205 13 255 
-3.065709 0.383405 6.648645 0.1361864 0.9895106 0.04818818 101 228 6 255 
-2.825768 0.3779426 4.520691 0.08999512 0.9954721 0.03059655 124 252 0 255 
-3.181786 0.2567841 3.226841 0.03401517 0.9965284 -0.07598697 124 232 11 255 
-2.495849 0.2543942 5.832458 0.1189601 0.9925247 -0.02726169 120 248 0 255 
-1.796746 0.1020427 5.932443 0.1748189 0.9833956 0.04869584 119 247 1 255 
-5.142268 -0.6994277 9.568907 0.01409425 0.9047684 0.4256708 124 252 0 255 
-4.56254 0.0575332 8.461804 -0.01517068 0.8810478 0.4727838 106 212 16 255 
-4.69484 0.3604673 7.743165 -0.0163723 0.9699075 0.2429229 106 209 18 255 
-3.402771 -0.7280452 9.626019 -0.03816225 0.896826 0.4407343 124 252 0 255 
-4.051528 -0.543511 9.237106 -0.003477021 0.8581485 0.5133899 112 222 11 255 
-3.30173 0.2255632 7.737748 0.1079745 0.9739709 0.1993044 124 228 13 255 
-2.281721 0.09724675 7.903531 0.09610911 0.9904619 0.09873352 124 228 13 255 
-2.296313 -0.6519932 9.686084 0.05946459 0.9281883 0.367329 124 252 0 255 
-1.881005 -0.5161 9.142433 0.03781051 0.913949 0.4040639 124 237 8 255 
-2.158304 -0.03375071 8.400147 0.05139264 0.909837 0.4117712 124 228 13 255 
-5.007163 0.2309501 -6.505862 0.08283994 0.9913061 -0.1022239 105 212 16 255 
-4.005589 -0.03720361 -6.920203 0.07624776 0.991846 -0.1021171 95 207 15 255 
-6.599 0.3671828 -4.691833 0.0002313235 0.9997864 -0.02066809 101 228 6 255 
-6.467969 0.2662095 -5.251198 -0.02704416 0.9881949 -0.1507959 101 228 6 255 
-7.397207 0.4270056 -4.856216 0.0335817 0.9956184 -0.08727144 101 228 6 255 
-6.207052 0.131092 -6.688405 0.009260508 0.9951181 -0.09825603 106 209 18 255 
-5.48984 0.4376382 -4.761778 0.1188238 0.9924935 0.02894397 101 225 7 255 
-5.385532 0.4072797 -5.413994 0.08142592 0.9940708 -0.0720624 111 239 3 255 
-4.785763 0.2682305 -4.694809 0.08095407 0.9934918 -0.08012787 106 209 18 255 
-4.496752 0.1020224 -5.428186 0.1437734 0.9884213 -0.04850447 107 234 4 255 
-4.293388 0.1208454 -6.036863 0.1219964 0.9902647 -0.06702867 124 252 0 255 
-3.429591 0.1717632 -5.703211 0.06993128 0.9927949 -0.0973033 118 227 10 255 
-2.938223 -0.02621291 -6.7189 0.09012042 0.9942997 -0.05697903 95 219 8 255 
-5.01882 0.2801621 -3.970751 0.06752693 0.9936808 0.08965838 106 209 18 255 
-6.899868 -0.1120172 -1.625381 0.01256632 0.9930032 0.1174168 135 129 110 255 
-6.79656 0.2100498 -3.314054 0.03185172 0.9866868 0.1594826 124 202 27 255 
-5.704392 0.1399563 -2.972108 -0.0465568 0.9863356 0.1580336 124 219 18 255 
-4.30805 0.04813088 -2.092128 0.0098978 0.9893611 0.1451435 137 173 92 255 
-4.966857 0.2431995 -3.107729 0.00775427 0.9966637 0.08124831 108 233 5 255 
-4.104243 0.195202 -2.907024 0.08179791 0.9961863 0.03036298 103 230 5 255 
-7.24891 -0.3084332 3.540879 -0.1944069 0.9808612 -0.0108264 110 222 12 255 
-7.269589 -0.2383505 2.568054 -0.1731712 0.9848517 0.008875581 106 209 18 255 
-7.516694 -0.2700553 1.160093 -0.02594731 0.9990808 0.03412095 94 187 27 255 
-6.982878 -0.2295674 0.8400119 -0.06204951 0.998067 0.003467785 124 222 16 255 
-6.382492 -0.04396582 3.079464 -0.1566145 0.9873385 0.02519316 101 203 19 255 
-6.353405 0.00911262 2.257268 -0.1510808 0.9885083 0.005100481 124 243 4 255 
-5.988935 -0.0176497 1.34119 -0.1705561 0.9822174 -0.07848389 124 252 0 255 
-5.661354 -0.004194987 2.333544 -0.08148995 0.996591 -0.01287953 108 228 8 255 
-6.897167 -0.0585958 5.095233 -0.1940184 0.9789286 -0.06368539 112 240 3 255 
-5.886811 0.1443205 5.700567 -0.22678 0.9732665 -0.03637525 101 228 6 255 
-6.268714 -0.01328094 4.105748 -0.201052 0.9778204 -0.05869731 96 200 19 255 
-5.153354 0.3607478 5.379569 -0.222343 0.9718447 -0.07798385 103 210 16 255 
-5.441782 0.2021402 4.587156 -0.2080505 0.9751818 -0.07573316 104 208 18 255 
-8.823996 -0.3990919 9.473223 0.06089128 0.9588015 0.2774742 124 252 0 255 
-7.630111 -0.5155794 9.454014 0.05383423 0.9531733 0.2975948 124 252 0 255 
-8.020461 -0.277203 8.60197 0.05409016 0.9435751 0.3267113 124 252 0 255 
-7.186093 -0.008188409 8.152725 -0.06939093 0.9705733 0.2305912 124 252 0 255 
-8.252157 -0.04535717 8.036687 0.08613458 0.97645 0.1978037 124 252 0 255 
-7.11274 -0.0341906 6.654772 -0.08248618 0.9955603 -0.04533875 121 249 0 255 
-8.030565 0.03036831 7.22297 0.1245964 0.9916905 -0.03202745 101 228 6 255 
-6.829771 -0.3693964 8.964085 0.001593784 0.9149626 0.4035356 124 252 0 255 
-6.680753 -0.6685268 9.640363 0.04530737 0.9149258 0.4010711 124 252 0 255 
-5.626035 -0.411828 8.979608 -0.01235058 0.8753596 0.4833146 124 252 0 255 
-5.713264 0.04821259 8.185624 -0.08222337 0.9246608 0.3718088 124 246 3 255 
-6.152974 0.1344576 7.454491 -0.1674595 0.9830465 0.07467875 107 202 22 255 
-9.092375 -0.6272132 -8.514911 -0.4024927 0.8888292 -0.2190487 102 221 10 255 
-9.574428 -0.8041309 -8.807533 -0.2925707 0.9309834 -0.2183398 124 252 0 255 
-8.011169 0.004339247 -7.989227 -0.12172 0.9781709 -0.1684218 101 226 7 255 
-9.705353 -0.2177199 -5.190202 -0.4841425 0.8723143 -0.06836611 101 228 6 255 
-10.32139 -0.4956732 -5.642278 -0.370952 0.9230584 -0.1017739 124 252 0 255 
-10.02777 -0.6689225 -7.168551 -0.3746487 0.9113843 -0.1703439 124 252 0 255 
-8.762194 -0.05877467 -7.214275 -0.3841082 0.9087063 -0.1634436 91 194 22 255 
-9.143978 0.1951856 -5.085059 -0.4722129 0.881476 0.003885945 110 214 16 255 
-8.984921 0.2068003 -5.70377 -0.4156053 0.8896693 -0.1891054 114 235 5 255 
-9.18768 -0.1982854 -6.493288 -0.4191845 0.892454 -0.1667646 124 252 0 255 
-8.596369 0.3831276 -4.992197 -0.1285934 0.990981 -0.03768756 106 209 18 255 
-7.851439 0.2512789 -5.608974 0.02101602 0.9903545 -0.1369536 101 228 6 255 
-8.13558 0.2074257 -6.61384 -0.1173222 0.9816148 -0.150559 124 228 13 255 
-8.904441 0.2293606 -4.23243 -0.2858684 0.9577172 0.03251199 124 252 0 255 
-10.35612 -0.4950098 -4.271084 -0.3646895 0.9306853 0.02874775 135 129 110 255 
-9.657236 -0.2500682 -4.046162 -0.5115868 0.8591216 -0.01374941 135 129 110 255 
-8.979303 0.1607915 -2.822032 -0.1583719 0.9814014 0.1084882 135 129 110 255 
-7.92465 0.159319 -2.933802 0.01504285 0.9861172 0.165368 124 207 25 255 
-9.46944 -0.005400092 -1.757348 -0.269509 0.9629847 -0.005031903 135 129 110 255 
-9.292825 -0.3929466 1.699845 -0.2613603 0.9511489 0.1643371 102 229 5 255 
-10.28009 -0.6465421 0.996611 -0.338349 0.9338309 0.1161027 107 234 4 255 
-8.391007 -0.3923412 3.122692 -0.1239109 0.9921256 -0.01824877 94 197 21 255 
-8.660254 -0.2218327 1.605273 -0.1245034 0.980979 0.1489271 89 197 19 255 
-8.875671 -0.09288839 0.6031029 -0.157598 0.982278 0.1014532 118 223 13 255 
-9.121825 -0.6350319 3.104673 -0.2139829 0.9742066 -0.07164354 104 214 14 255 
-10.96513 -0.1667118 5.430687 0.04900005 0.9892971 -0.1374422 124 252 0 255 
-10.09058 -0.2458682 5.172717 -0.09605469 0.974997 -0.2003853 124 246 3 255 
-10.6249 -0.3572066 4.906141 -0.08433643 0.9557247 -0.281918 122 241 4 255 
-9.64202 -0.7216769 3.073953 -0.2228969 0.9746374 0.01997557 121 249 0 255 
-9.005478 -0.09478881 4.858992 -0.04759524 0.9838987 -0.1722732 108 195 25 255 
-8.015184 -0.2620089 5.138398 0.02218253 0.9977432 -0.06337515 111 218 14 255 
-9.504545 0.08769996 6.204245 -0.04809214 0.9891928 -0.1385096 112 201 22 255 
-11.24269 -0.2544987 8.485408 -0.09649806 0.9903929 0.09904592 124 252 0 255 
-10.57733 -0.1473467 8.062204 -0.1772993 0.9731552 0.1467448 124 234 10 255 
-11.21329 -0.2908605 7.496325 -0.1944155 0.9809167 -0.002256875 124 248 2 255 
-10.63324 -0.1632483 6.951921 -0.2734116 0.9616438 -0.02207706 106 209 18 255 
-11.07497 -0.2119471 6.107337 -0.1082086 0.9940505 -0.01242882 124 252 0 255 
-9.857942 0.203868 7.355599 -0.1819324 0.9827455 0.03334671 118 223 13 255 
-10.03162 -0.3368526 8.852446 -0.07068532 0.9580559 0.2777273 124 252 0 255 
-9.098089 0.2054057 6.912615 0.1134713 0.9894031 -0.09058673 106 209 18 255 
-8.769371 0.06537896 8.006109 0.0585217 0.9686241 0.2415421 124 252 0 255 
5.109703 0.01787058 -9.974483 0.2529618 0.8142914 -0.5224364 124 252 0 255 
5.056173 -0.2669913 -10.66334 0.2019203 0.8700629 -0.4496875 124 250 1 255 
7.048407 -0.4535784 -10.00696 0.216247 0.9090005 -0.356308 126 243 12 255 
4.345655 1.171836 -8.485763 0.2747796 0.901623 -0.3340243 106 209 18 255 
3.369689 1.245334 -8.730243 -0.02394647 0.9366312 -0.3494975 103 211 16 255 
4.379859 0.8513071 -9.012747 0.3040893 0.8814648 -0.3613164 106 209 18 255 
4.484191 0.5726976 -9.590423 0.3080276 0.8117487 -0.4961683 120 248 0 255 
3.520356 0.6880499 -9.934491 0.08446823 0.7625488 -0.6413926 124 252 0 255 
6.011035 0.2238809 -9.291147 0.2827934 0.8569387 -0.4309106 110 237 3 255 
6.047144 0.7000843 -7.761366 0.3576783 0.9259222 -0.1213849 124 225 14 255 
5.572076 0.6827365 -8.431353 0.3157239 0.8988017 -0.3040953 106 204 20 255 
6.894291 0.2060438 -8.741988 0.2600348 0.9073716 -0.3302405 103 221 9 255 
7.215834 0.166595 -8.173984 0.2800186 0.9548236 -0.09950653 124 228 13 255 
8.095335 0.007540835 -8.30545 0.06988174 0.9677038 -0.2422105 124 199 28 255 
1.659995 0.02861757 -10.5428 0.05958199 0.9116006 -0.4067363 124 249 3 255 
3.125338 -0.1691806 -10.99468 -0.07226914 0.8483692 -0.5244492 124 252 0 255 
0.2475726 0.8148046 -7.874378 -0.2815721 0.9481664 -0.1473014 73 200 12 255 
1.39987 0.8232577 -8.52804 -0.2237759 0.941717 -0.2511841 83 209 11 255 
0.9609185 0.6675498 -9.074357 -0.009870484 0.9566647 -0.2910245 95 222 6 255 
1.299443 0.9430472 -7.811395 -0.2764017 0.9473121 -0.1618699 101 215 12 255 
2.141969 0.6804703 -9.477026 -0.195085 0.8648294 -0.4626143 110 237 3 255 
2.094588 1.040176 -8.809101 -0.3073465 0.8758299 -0.3721024 101 228 6 255 
3.372156 1.172123 -9.306939 0.02493786 0.9201611 -0.390745 119 247 1 255 
-1.348718 -0.4374153 -10.49907 -0.1450042 0.9513167 -0.2719749 108 235 4 255 
-0.4957698 -0.2508834 -10.86446 -0.2275259 0.9398078 -0.2549376 121 249 0 255 
0.3032772 -0.1011492 -10.50966 -0.1955898 0.8769599 -0.4389602 124 235 20 255 
-1.178198 -0.1944268 -8.991785 -0.2585959 0.9577111 0.1261656 86 202 16 255 
-0.9846916 0.05194917 -9.043616 -0.6503859 0.7576897 0.05389343 83 209 11 255 
-1.310285 -0.1690822 -9.809606 -0.2624189 0.9518902 -0.1582443 98 225 6 255 
-0.4165095 0.3117905 -9.273011 -0.3234902 0.9135351 -0.2465924 102 228 5 255 
-0.3057718 0.4541221 -8.382875 -0.506416 0.860519 -0.05522725 73 199 15 255 
0.4662291 0.7351288 -8.83264 -0.201301 0.9556718 -0.2148704 83 209 11 255 
-4.659595 -0.4384217 -10.2526 -0.06682114 0.8987874 -0.4332621 101 223 8 255 
-3.582618 -0.7280882 -11.00641 -0.04003846 0.9460821 -0.3214432 110 237 3 255 
-5.898825 -0.04162134 -8.087789 0.0272106 0.995485 -0.09093539 95 222 7 255 
-4.95541 -0.1123044 -9.484012 -0.04277046 0.9776903 -0.2056513 110 194 27 255 
-6.910123 -0.2895664 -9.611841 -0.07489881 0.9015262 -0.4261932 101 226 7 255 
-4.631238 0.02628327 -8.249071 0.02325687 0.9945135 -0.1019905 124 252 0 255 
-3.930845 -0.0723427 -9.130684 0.008240671 0.9978573 -0.06490644 124 240 6 255 
-4.490272 -0.1086466 -9.679617 -0.03285987 0.9436862 -0.3292059 106 209 18 255 
-3.661946 -0.1227458 -7.97772 0.1074594 0.9941292 0.01263771 99 224 7 255 
-3.233793 -0.1633359 -9.754852 -0.003567697 0.9564028 -0.2920291 106 209 18 255 
-2.297382 -0.04979706 -8.85008 0.05244197 0.9984387 0.01923963 104 214 14 255 
-8.396343 -1.078941 -10.86024 -0.1733675 0.9371639 -0.3027665 124 252 0 255 
-7.475877 -0.8219935 -10.20032 -0.01748375 0.8824838 -0.4700178 124 252 0 255 
-7.790761 -1.008614 -10.71226 -0.09202179 0.9032983 -0.4190277 124 252 0 255 
-8.778741 -0.8190884 -9.836942 -0.3553422 0.8755133 -0.3274269 124 252 0 255 
-8.997202 -1.255089 -10.79995 -0.3392596 0.8834882 -0.323035 124 252 0 255 
-8.394272 -0.3719364 -9.226782 -0.390267 0.8918766 -0.2285777 124 241 6 255 
-8.189515 -0.4447046 -9.821361 -0.162325 0.8839861 -0.4384282 124 252 0 255 
-7.804536 -0.2807273 -9.443523 -0.1068157 0.9174109 -0.3833377 124 248 2 255 
-7.284853 -0.08303636 -8.85466 -0.06582507 0.9787722 -0.1940928 110 195 26 255 
9.0199 -0.3020043 -9.025608 -0.05674883 0.926083 -0.3730281 124 234 9 255 
8.412804 -0.4886024 -9.509372 0.009983024 0.96143 -0.2748686 124 252 0 255 
10.35308 -0.369186 -9.860282 0.01609549 0.9846417 -0.173844 124 243 4 255 
8.041921 0.1644089 -7.291684 0.01039684 0.9986766 -0.05036862 124 219 17 255 
8.966137 0.1295334 -8.216194 0.04959866 0.9720646 -0.2294136 124 228 13 255 
9.559801 0.0452242 -7.636831 0.3241284 0.9434975 -0.06894295 124 240 6 255 
9.537024 -0.1490983 -8.736506 0.1661233 0.9606796 -0.2224809 124 247 2 255 
10.20028 -0.2210193 -6.17382 0.3216709 0.9417053 0.09858438 114 242 2 255 
10.64276 -0.3045178 -6.028572 0.1452357 0.9818477 0.1219908 118 234 15 255 
-10.59492 -0.5115733 -1.87982 -0.3865687 0.9222605 0.000457484 138 135 118 255 
-8.55601 -0.07995403 -0.7192388 0.03389091 0.994974 0.09422377 135 129 110 255 
-9.289997 0.1852221 -3.378623 -0.4399323 0.8980294 -0.00165954 135 129 110 255 
-10.27563 -0.5624614 -2.643324 -0.4743131 0.8801272 -0.02007985 135 129 110 255 
-3.564438 -0.1359296 -0.4290349 -0.03488219 0.9991155 -0.02348143 137 140 111 255 
-5.334618 0.05431512 1.301714 -0.05185606 0.9975364 -0.04724496 127 209 39 255 
-6.073774 -0.1510778 -0.4815624 -0.0618965 0.99808 -0.002296091 135 129 110 255 
-2.296302 0.02065956 -0.4064456 -0.1843293 0.9826187 -0.02198412 133 153 89 255 
2.396603 -0.3305362 6.413516 0.04528251 0.9960461 0.07643036 134 134 105 255 
2.334126 -0.007450917 3.438307 -0.1200012 0.9216729 0.3689428 132 158 83 255 
0.5934082 -0.1163173 5.542907 0.0737374 0.9934353 0.08745932 135 129 110 255 
-1.356385 0.01019084 4.764081 0.1036141 0.994446 0.01847566 135 129 110 255 
0.5505427 0.1291653 2.795844 -0.04896419 0.9927565 0.109714 135 129 110 255 
5.40575 0.2414233 6.203247 -0.1555009 0.9873608 -0.03063072 135 129 110 255 
4.098682 -0.07838077 4.962977 -0.1455616 0.9843139 0.09968966 135 129 110 255 
6.052895 0.1718343 4.14101 -0.006658623 0.991443 -0.1303706 135 129 110 255 
7.915091 -0.07364009 2.048482 -0.08073912 0.9917003 -0.1000585 135 129 110 255 
6.78986 -0.1417176 2.768265 0.08086549 0.9872222 -0.1373069 135 129 110 255 
9.01376 -0.2460347 -0.8497812 0.09235864 0.9949898 -0.03827855 133 147 93 255 
9.153575 -0.2032162 0.5504248 0.05246543 0.992892 -0.1068312 135 129 110 255 
8.684731 -0.4771383 -2.650747 0.3378254 0.9390545 -0.0636455 135 129 110 255 
8.874303 -0.4940414 -3.564995 0.2735154 0.9484775 0.1599371 135 129 110 255 
9.988858 -1.254328 -2.666228 0.4695391 0.8707553 -0.1460078 135 129 110 255 
3 3 370 4 
3 3 4 380 
3 5 6 7 
3 8 9 10 
3 8 10 362 
3 11 12 400 
3 11 400 349 
3 329 283 409 
3 15 265 316 
3 16 17 18 
3 16 18 398 
3 21 227 222 
3 21 222 22 
3 23 24 25 
3 23 25 26 
3 257 27 205 
3 257 205 250 
3 238 28 29 
3 238 29 237 
3 234 30 225 
3 221 31 32 
3 221 32 33 
3 216 34 35 
3 194 37 131 
3 192 38 39 
3 192 39 40 
3 41 42 43 
3 44 45 46 
3 44 46 47 
3 125 61 56 
3 125 56 48 
3 49 50 91 
3 49 91 88 
3 90 51 52 
3 61 55 56 
3 55 57 56 
3 55 58 57 
3 46 65 59 
3 46 59 60 
3 61 60 55 
3 59 62 60 
3 60 62 55 
3 59 429 62 
3 62 58 55 
3 62 63 64 
3 62 64 58 
3 58 64 406 
3 64 407 406 
3 426 428 65 
3 427 54 66 
3 427 66 67 
3 427 67 426 
3 67 430 428 
3 424 68 427 
3 68 53 54 
3 68 54 427 
3 69 71 72 
3 69 72 70 
3 70 72 73 
3 70 73 74 
3 74 73 68 
3 74 68 424 
3 71 52 75 
3 71 75 72 
3 72 75 76 
3 72 76 73 
3 73 76 53 
3 73 53 68 
3 52 51 77 
3 52 77 75 
3 75 77 78 
3 75 78 76 
3 76 78 53 
3 79 83 69 
3 83 71 69 
3 71 90 52 
3 82 81 83 
3 82 83 160 
3 160 83 79 
3 80 84 82 
3 82 84 81 
3 81 85 83 
3 84 94 86 
3 84 86 87 
3 84 87 81 
3 81 87 85 
3 85 71 83 
3 94 88 86 
3 86 88 89 
3 86 89 87 
3 87 89 90 
3 87 90 85 
3 85 90 71 
3 88 91 92 
3 88 92 89 
3 89 92 51 
3 89 51 90 
3 93 84 80 
3 93 94 84 
3 94 49 88 
3 96 93 80 
3 95 97 98 
3 98 99 96 
3 96 99 93 
3 97 103 100 
3 97 100 98 
3 98 100 101 
3 98 101 99 
3 99 101 102 
3 99 102 94 
3 99 94 93 
3 103 104 100 
3 100 104 105 
3 100 105 101 
3 101 105 106 
3 101 106 102 
3 102 106 49 
3 102 49 94 
3 103 107 108 
3 103 108 104 
3 104 108 109 
3 104 109 105 
3 105 109 106 
3 106 109 50 
3 106 50 49 
3 41 110 111 
3 41 111 42 
3 110 112 113 
3 110 113 111 
3 112 125 48 
3 112 48 113 
3 39 117 114 
3 39 114 115 
3 115 114 116 
3 115 116 182 
3 182 116 110 
3 182 110 41 
3 117 118 114 
3 114 118 119 
3 114 119 116 
3 116 119 112 
3 116 112 110 
3 117 120 121 
3 117 121 118 
3 118 121 122 
3 118 122 119 
3 119 122 112 
3 120 47 123 
3 120 123 121 
3 121 123 124 
3 121 124 122 
3 122 124 125 
3 122 125 112 
3 47 46 123 
3 123 46 60 
3 123 60 124 
3 124 60 61 
3 124 61 125 
3 38 126 117 
3 38 117 39 
3 126 127 117 
3 127 128 120 
3 127 120 117 
3 128 44 47 
3 128 47 120 
3 131 129 130 
3 131 130 132 
3 131 132 191 
3 191 132 133 
3 191 133 134 
3 134 133 126 
3 134 126 38 
3 129 135 137 
3 129 137 130 
3 133 132 127 
3 133 127 126 
3 135 136 137 
3 132 130 128 
3 132 128 127 
3 136 138 139 
3 136 139 137 
3 137 139 140 
3 137 140 130 
3 130 140 44 
3 130 44 128 
3 138 141 142 
3 138 142 139 
3 139 142 143 
3 139 143 140 
3 140 143 45 
3 140 45 44 
3 37 149 129 
3 37 129 131 
3 149 144 135 
3 149 135 129 
3 144 145 136 
3 144 136 135 
3 145 157 138 
3 145 138 136 
3 147 153 148 
3 148 153 149 
3 148 149 150 
3 150 149 37 
3 146 422 151 
3 146 151 147 
3 147 151 152 
3 147 152 153 
3 149 153 144 
3 151 154 155 
3 151 155 152 
3 152 155 156 
3 152 156 153 
3 153 156 145 
3 153 145 144 
3 156 155 157 
3 156 157 145 
3 36 422 146 
3 34 158 422 
3 158 421 422 
3 158 161 159 
3 158 159 421 
3 161 162 159 
3 159 160 421 
3 162 80 82 
3 162 82 159 
3 159 82 160 
3 34 166 158 
3 166 161 158 
3 165 166 34 
3 163 167 164 
3 164 167 168 
3 164 168 165 
3 165 168 166 
3 166 168 161 
3 167 169 170 
3 167 170 168 
3 168 170 162 
3 168 162 161 
3 167 95 169 
3 95 98 169 
3 169 98 96 
3 169 96 170 
3 170 96 80 
3 170 80 162 
3 31 177 171 
3 31 171 32 
3 171 180 172 
3 180 41 43 
3 180 43 172 
3 30 173 174 
3 174 173 176 
3 174 176 177 
3 174 177 31 
3 173 178 175 
3 173 175 176 
3 178 181 175 
3 175 181 179 
3 175 179 176 
3 176 179 180 
3 176 180 177 
3 177 180 171 
3 178 40 181 
3 181 182 179 
3 180 179 41 
3 40 39 115 
3 40 115 181 
3 181 115 182 
3 179 182 41 
3 30 183 173 
3 183 178 173 
3 183 190 178 
3 190 192 40 
3 190 40 178 
3 29 184 185 
3 29 185 186 
3 186 185 183 
3 186 183 30 
3 184 193 187 
3 184 187 185 
3 185 187 188 
3 185 188 183 
3 193 194 187 
3 187 189 188 
3 188 189 190 
3 188 190 183 
3 194 191 187 
3 187 191 189 
3 189 192 190 
3 194 131 191 
3 189 191 134 
3 189 134 192 
3 192 134 38 
3 28 184 29 
3 195 184 196 
3 196 184 28 
3 420 203 197 
3 420 197 195 
3 195 197 198 
3 195 198 184 
3 184 198 193 
3 197 203 199 
3 197 199 200 
3 197 200 202 
3 197 202 198 
3 198 202 194 
3 198 194 193 
3 417 199 203 
3 199 417 201 
3 199 201 200 
3 200 201 202 
3 417 146 147 
3 417 147 148 
3 417 148 201 
3 201 148 150 
3 201 150 202 
3 202 150 37 
3 202 37 194 
3 420 418 203 
3 205 204 418 
3 205 418 206 
3 204 207 418 
3 204 35 207 
3 35 416 207 
3 35 34 416 
3 416 34 422 
3 416 422 36 
3 27 204 205 
3 208 212 209 
3 208 209 259 
3 259 209 211 
3 211 209 210 
3 211 210 27 
3 212 213 209 
3 209 213 214 
3 209 214 210 
3 210 214 204 
3 210 204 27 
3 212 215 213 
3 213 216 214 
3 214 216 35 
3 214 35 204 
3 215 163 217 
3 215 217 218 
3 215 218 213 
3 213 218 216 
3 163 164 217 
3 217 164 165 
3 217 165 218 
3 218 165 216 
3 216 165 34 
3 24 219 220 
3 24 220 25 
3 219 221 33 
3 219 33 220 
3 224 223 219 
3 224 219 24 
3 222 228 226 
3 222 226 221 
3 222 221 223 
3 223 221 219 
3 228 225 226 
3 225 30 174 
3 225 174 226 
3 226 174 31 
3 226 31 221 
3 227 228 222 
3 228 234 225 
3 412 415 229 
3 412 229 230 
3 230 229 233 
3 230 233 231 
3 230 231 232 
3 232 231 227 
3 415 236 229 
3 229 236 233 
3 233 234 231 
3 231 234 228 
3 231 228 227 
3 415 235 236 
3 233 236 234 
3 235 237 236 
3 236 237 234 
3 237 29 186 
3 237 186 234 
3 234 186 30 
3 415 238 235 
3 238 237 235 
3 239 238 415 
3 238 240 28 
3 240 195 196 
3 240 196 28 
3 19 241 242 
3 19 242 243 
3 243 242 244 
3 243 244 245 
3 245 244 248 
3 245 248 20 
3 241 246 249 
3 241 249 242 
3 242 249 247 
3 242 247 244 
3 244 247 248 
3 246 250 249 
3 249 250 419 
3 249 419 247 
3 250 205 206 
3 250 206 419 
3 241 256 246 
3 256 257 250 
3 256 250 246 
3 251 254 255 
3 252 256 253 
3 253 256 241 
3 253 241 19 
3 255 260 252 
3 252 260 256 
3 254 258 260 
3 254 260 255 
3 260 257 256 
3 258 259 260 
3 258 208 259 
3 259 211 260 
3 260 211 257 
3 257 211 27 
3 17 266 381 
3 17 381 18 
3 266 261 384 
3 266 384 381 
3 261 262 387 
3 261 387 384 
3 262 23 26 
3 262 26 387 
3 265 263 264 
3 265 264 266 
3 263 267 268 
3 263 268 264 
3 264 268 261 
3 264 261 266 
3 267 269 270 
3 267 270 268 
3 268 270 271 
3 268 271 261 
3 261 271 262 
3 269 22 272 
3 269 272 270 
3 270 272 271 
3 271 272 273 
3 271 273 262 
3 262 273 23 
3 22 222 272 
3 272 222 223 
3 272 223 224 
3 272 224 273 
3 273 224 24 
3 273 24 23 
3 15 276 263 
3 15 263 265 
3 276 274 267 
3 276 267 263 
3 274 269 267 
3 274 21 22 
3 274 22 269 
3 276 277 274 
3 277 275 278 
3 277 278 279 
3 277 279 274 
3 278 280 279 
3 279 280 21 
3 279 21 274 
3 412 230 278 
3 278 230 232 
3 278 232 280 
3 280 232 227 
3 280 227 21 
3 14 281 282 
3 14 282 327 
3 327 282 283 
3 281 285 286 
3 281 286 282 
3 282 286 287 
3 282 287 283 
3 283 287 284 
3 285 288 286 
3 286 288 413 
3 286 413 287 
3 288 20 239 
3 336 13 289 
3 336 289 281 
3 336 281 14 
3 13 290 289 
3 289 291 281 
3 281 291 285 
3 290 293 289 
3 289 293 291 
3 291 288 285 
3 290 19 292 
3 290 292 293 
3 291 293 20 
3 291 20 288 
3 19 243 292 
3 292 243 245 
3 292 245 293 
3 293 245 20 
3 299 290 13 
3 294 295 296 
3 296 297 298 
3 298 297 299 
3 298 299 300 
3 300 299 13 
3 295 302 301 
3 295 301 296 
3 296 301 297 
3 297 305 299 
3 302 303 301 
3 301 303 304 
3 301 304 297 
3 297 304 305 
3 305 290 299 
3 302 251 303 
3 304 253 305 
3 305 253 19 
3 305 19 290 
3 251 255 303 
3 303 255 252 
3 303 252 304 
3 304 252 253 
3 311 306 307 
3 308 16 398 
3 310 309 315 
3 310 315 311 
3 311 315 312 
3 311 312 306 
3 309 313 314 
3 309 314 315 
3 313 316 314 
3 314 316 318 
3 314 318 315 
3 315 318 312 
3 312 318 308 
3 316 317 318 
3 318 16 308 
3 316 265 317 
3 317 265 266 
3 317 266 318 
3 318 266 17 
3 318 17 16 
3 320 321 309 
3 320 309 310 
3 321 319 313 
3 321 313 309 
3 319 316 313 
3 319 15 316 
3 324 322 411 
3 321 410 319 
3 410 322 319 
3 322 323 15 
3 322 15 319 
3 323 276 15 
3 334 330 325 
3 334 325 326 
3 330 328 325 
3 326 325 329 
3 330 327 328 
3 325 328 329 
3 327 283 328 
3 328 283 329 
3 330 335 327 
3 335 14 327 
3 331 332 333 
3 333 330 334 
3 333 332 330 
3 332 335 330 
3 335 336 14 
3 342 337 332 
3 342 332 331 
3 337 335 332 
3 337 13 336 
3 337 336 335 
3 338 344 339 
3 338 339 340 
3 340 339 341 
3 340 341 342 
3 342 341 337 
3 344 346 339 
3 339 346 343 
3 339 343 341 
3 341 343 337 
3 343 345 337 
3 344 294 346 
3 343 346 345 
3 345 13 337 
3 294 296 346 
3 346 296 298 
3 346 298 300 
3 346 300 345 
3 345 300 13 
3 9 347 348 
3 9 348 10 
3 347 355 349 
3 347 349 348 
3 355 11 349 
3 42 111 350 
3 42 350 351 
3 351 350 352 
3 351 352 369 
3 369 352 353 
3 369 353 354 
3 354 353 347 
3 354 347 9 
3 111 113 356 
3 111 356 350 
3 350 356 357 
3 350 357 352 
3 352 357 355 
3 352 355 353 
3 353 355 347 
3 357 358 355 
3 113 48 356 
3 356 48 359 
3 356 359 357 
3 357 359 358 
3 358 11 355 
3 48 56 402 
3 48 402 360 
3 48 360 359 
3 359 360 358 
3 358 360 12 
3 358 12 11 
3 6 365 361 
3 6 361 7 
3 365 362 361 
3 32 171 366 
3 32 366 363 
3 363 366 364 
3 363 364 365 
3 363 365 378 
3 378 365 6 
3 364 367 365 
3 365 367 362 
3 171 172 366 
3 366 172 368 
3 366 368 364 
3 364 368 367 
3 172 43 351 
3 172 351 369 
3 172 369 368 
3 368 369 8 
3 368 8 367 
3 367 8 362 
3 43 42 351 
3 369 354 8 
3 8 354 9 
3 370 371 4 
3 372 5 7 
3 25 220 374 
3 25 374 373 
3 373 374 375 
3 220 377 374 
3 374 377 376 
3 374 376 375 
3 375 376 371 
3 375 371 370 
3 220 33 377 
3 376 372 371 
3 377 378 376 
3 376 378 5 
3 376 5 372 
3 33 32 363 
3 33 363 377 
3 377 363 378 
3 378 6 5 
3 1 379 2 
3 379 380 2 
3 379 3 380 
3 18 381 382 
3 18 382 398 
3 398 382 383 
3 383 382 379 
3 383 379 1 
3 381 384 385 
3 381 385 382 
3 382 385 386 
3 382 386 379 
3 384 387 385 
3 385 388 386 
3 386 388 3 
3 386 3 379 
3 387 26 389 
3 387 389 385 
3 385 389 388 
3 26 25 373 
3 26 373 389 
3 389 373 375 
3 389 375 388 
3 388 375 370 
3 388 370 3 
3 391 1 2 
3 391 2 392 
3 307 306 393 
3 307 393 394 
3 394 393 390 
3 306 312 395 
3 306 395 393 
3 393 395 396 
3 393 396 392 
3 393 392 390 
3 312 308 395 
3 395 308 397 
3 395 397 396 
3 396 397 391 
3 396 391 392 
3 308 398 397 
3 397 398 383 
3 397 383 1 
3 397 1 391 
3 12 399 400 
3 399 405 401 
3 399 401 400 
3 56 57 402 
3 360 402 403 
3 360 403 399 
3 360 399 12 
3 57 403 402 
3 57 58 404 
3 57 404 403 
3 403 404 405 
3 403 405 399 
3 58 406 404 
3 404 406 0 
3 404 0 405 
3 405 0 401 
3 406 407 0 
3 324 329 409 
3 326 329 408 
3 329 324 408 
3 409 276 323 
3 409 323 322 
3 324 409 322 
3 321 411 410 
3 411 322 410 
3 408 324 411 
3 411 321 320 
3 413 412 414 
3 288 239 413 
3 413 239 412 
3 413 414 287 
3 284 287 414 
3 283 284 409 
3 414 412 278 
3 275 414 278 
3 275 277 276 
3 284 414 275 
3 409 275 276 
3 409 284 275 
3 247 419 240 
3 248 247 240 
3 20 248 239 
3 419 420 240 
3 248 240 238 
3 239 248 238 
3 412 239 415 
3 36 417 203 
3 207 416 36 
3 36 203 418 
3 418 207 36 
3 419 206 420 
3 206 418 420 
3 420 195 240 
3 160 79 421 
3 155 425 157 
3 154 425 155 
3 423 425 154 
3 421 423 154 
3 422 421 154 
3 422 154 151 
3 79 69 423 
3 425 74 424 
3 423 70 74 
3 423 74 425 
3 423 69 70 
3 141 424 427 
3 425 424 141 
3 67 66 430 
3 426 67 428 
3 143 65 45 
3 143 426 65 
3 142 426 143 
3 427 426 142 
3 141 427 142 
3 65 428 429 
3 45 65 46 
3 429 63 62 
3 429 428 63 
3 428 430 63 
3 65 429 59 
3 157 141 138 
3 157 425 141 
3 421 79 423 
3 417 36 146 
